{
  "accessors": [
    {
      "bufferView": 2,
      "componentType": 5126,
      "count": 1586,
      "max": [
        1.5960379838943481,
        3.7438883781433105,
        1.4156684875488281
      ],
      "min": [
        -2.2476584911346436,
        -2.4808995723724365,
        -8.302896499633789
      ],
      "type": "VEC3"
    },
    {
      "bufferView": 2,
      "byteOffset": 19032,
      "componentType": 5126,
      "count": 1586,
      "max": [
        1.0,
        0.9987300038337708,
        1.0
      ],
      "min": [
        -0.9996387958526611,
        -0.9987300038337708,
        -1.0
      ],
      "type": "VEC3"
    },
    {
      "bufferView": 1,
      "componentType": 5126,
      "count": 1586,
      "max": [
        0.9726996421813965,
        0.9702388048171997
      ],
      "min": [
        0.010242044925689697,
        0.00633576512336731
      ],
      "type": "VEC2"
    },
    {
      "bufferView": 1,
      "byteOffset": 12688,
      "componentType": 5126,
      "count": 1586,
      "max": [
        0.0,
        0.0
      ],
      "min": [
        0.0,
        0.0
      ],
      "type": "VEC2"
    },
    {
      "bufferView": 0,
      "componentType": 5125,
      "count": 2382,
      "type": "SCALAR"
    }
  ],
  "asset": {
    "extras": {
      "author": "Hanesto (https://sketchfab.com/Hanesto)",
      "license": "CC-BY-4.0 (http://creativecommons.org/licenses/by/4.0/)",
      "source": "https://sketchfab.com/3d-models/pedestrian-003-medieval-assets-231ff290ad6440c9bf99a4d8eccfb3d4",
      "title": "Pedestrian [003] [Medieval Assets]"
    },
    "generator": "Sketchfab-12.63.0",
    "version": "2.0"
  },
  "bufferViews": [
    {
      "buffer": 0,
      "byteLength": 9528,
      "name": "floatBufferViews",
      "target": 34963
    },
    {
      "buffer": 0,
      "byteLength": 25376,
      "byteOffset": 9528,
      "byteStride": 8,
      "name": "floatBufferViews",
      "target": 34962
    },
    {
      "buffer": 0,
      "byteLength": 38064,
      "byteOffset": 34904,
      "byteStride": 12,
      "name": "floatBufferViews",
      "target": 34962
    }
  ],
  "buffers": [
    {
      "byteLength": 72968,
      "uri": "scene.bin"
    }
  ],
  "images": [
    {
      "uri": "textures/eyebrows_baseColor.png"
    }
  ],
  "materials": [
    {
      "doubleSided": true,
      "name": "eyebrows",
      "pbrMetallicRoughness": {
        "baseColorTexture": {
          "index": 0
        },
        "metallicFactor": 0.0,
        "roughnessFactor": 0.9577051495
      }
    }
  ],
  "meshes": [
    {
      "name": "woman1.001_eyebrows_0",
      "primitives": [
        {
          "attributes": {
            "NORMAL": 1,
            "POSITION": 0,
            "TEXCOORD_0": 2,
            "TEXCOORD_1": 3
          },
          "indices": 4,
          "material": 0,
          "mode": 4
        }
      ]
    }
  ],
  "nodes": [
    {
      "children": [
        1
      ],
      "matrix": [
        1.0,
        0.0,
        0.0,
        0.0,
        0.0,
        2.220446049250313e-16,
        -1.0,
        0.0,
        0.0,
        1.0,
        2.220446049250313e-16,
        0.0,
        0.0,
        0.0,
        0.0,
        1.0
      ],
      "name": "Sketchfab_model"
    },
    {
      "children": [
        2
      ],
      "matrix": [
        1.0,
        0.0,
        0.0,
        0.0,
        0.0,
        0.0,
        1.0,
        0.0,
        0.0,
        -1.0,
        0.0,
        0.0,
        0.0,
        0.0,
        0.0,
        1.0
      ],
      "name": "771ceca39d484b4b9be108afd642a8ae.fbx"
    },
    {
      "children": [
        3
      ],
      "name": "RootNode"
    },
    {
      "children": [
        4
      ],
      "matrix": [
        -7.097054266984541,
        -1.0148633907066355e-06,
        -14.630723577262634,
        0.0,
        -14.630723577262494,
        3.0124932576227513e-06,
        7.097054266984264,
        0.0,
        2.267510759737813e-06,
        16.261190414428402,
        -2.2278825511755266e-06,
        0.0,
        -145.84097290039063,
        110.57341003417969,
        -32.169776916503906,
        1.0
      ],
      "name": "woman1.001"
    },
    {
      "mesh": 0,
      "name": "woman1.001_eyebrows_0"
    }
  ],
  "samplers": [
    {
      "magFilter": 9729,
      "minFilter": 9987,
      "wrapS": 10497,
      "wrapT": 10497
    }
  ],
  "scene": 0,
  "scenes": [
    {
      "name": "Sketchfab_Scene",
      "nodes": [
        0
      ]
    }
  ],
  "textures": [
    {
      "sampler": 0,
      "source": 0
    }
  ]
}
